<svg width="123" height="33" viewBox="0 0 123 33" fill="none" xmlns="http://www.w3.org/2000/svg">
<path d="M21.005 25.025H7.325L4.805 32H0.485L11.825 0.814999H16.55L27.845 32H23.525L21.005 25.025ZM19.835 21.695L14.165 5.855L8.495 21.695H19.835ZM36.8823 28.67H47.8623V32H32.7873V0.634999H36.8823V28.67ZM56.3061 3.965V14.45H67.7361V17.825H56.3061V28.625H69.0861V32H52.2111V0.589999H69.0861V3.965H56.3061ZM92.2924 32L79.3774 17.69V32H75.2824V0.634999H79.3774V15.17L92.3374 0.634999H97.5124L83.2924 16.34L97.6474 32H92.2924ZM112.166 32.315C110.096 32.315 108.236 31.955 106.586 31.235C104.966 30.485 103.691 29.465 102.761 28.175C101.831 26.855 101.351 25.34 101.321 23.63H105.686C105.836 25.1 106.436 26.345 107.486 27.365C108.566 28.355 110.126 28.85 112.166 28.85C114.116 28.85 115.646 28.37 116.756 27.41C117.896 26.42 118.466 25.16 118.466 23.63C118.466 22.43 118.136 21.455 117.476 20.705C116.816 19.955 115.991 19.385 115.001 18.995C114.011 18.605 112.676 18.185 110.996 17.735C108.926 17.195 107.261 16.655 106.001 16.115C104.771 15.575 103.706 14.735 102.806 13.595C101.936 12.425 101.501 10.865 101.501 8.915C101.501 7.205 101.936 5.69 102.806 4.37C103.676 3.05 104.891 2.03 106.451 1.31C108.041 0.589998 109.856 0.229999 111.896 0.229999C114.836 0.229999 117.236 0.964999 119.096 2.435C120.986 3.905 122.051 5.855 122.291 8.285H117.791C117.641 7.085 117.011 6.035 115.901 5.135C114.791 4.205 113.321 3.74 111.491 3.74C109.781 3.74 108.386 4.19 107.306 5.09C106.226 5.96 105.686 7.19 105.686 8.78C105.686 9.92 106.001 10.85 106.631 11.57C107.291 12.29 108.086 12.845 109.016 13.235C109.976 13.595 111.311 14.015 113.021 14.495C115.091 15.065 116.756 15.635 118.016 16.205C119.276 16.745 120.356 17.6 121.256 18.77C122.156 19.91 122.606 21.47 122.606 23.45C122.606 24.98 122.201 26.42 121.391 27.77C120.581 29.12 119.381 30.215 117.791 31.055C116.201 31.895 114.326 32.315 112.166 32.315Z" fill="black"/>
</svg>
